<svg width="150" height="169" viewBox="0 0 150 169" fill="none" xmlns="http://www.w3.org/2000/svg">
<path d="M29.625 75.3C25.8508 75.3133 22.1727 74.1109 19.1352 71.8708C16.0977 69.6307 13.8624 66.4719 12.7601 62.8623C11.6579 59.2526 11.7474 55.384 13.0153 51.8292C14.2832 48.2743 16.6622 45.2223 19.8 43.125L83.4375 0.412488C83.9743 0.096166 84.6118 -0.00259001 85.2192 0.136506C85.8265 0.275603 86.3575 0.64199 86.7031 1.16041C87.0487 1.67882 87.1827 2.30991 87.0775 2.92402C86.9723 3.53814 86.6359 4.08865 86.1375 4.46249L22.5 47.1562C21.1137 48.087 19.9244 49.2817 18.9998 50.6721C18.0752 52.0625 17.4336 53.6213 17.1115 55.2597C16.7894 56.8981 16.7931 58.5839 17.1225 60.2208C17.4519 61.8577 18.1005 63.4137 19.0312 64.8C19.962 66.1863 21.1567 67.3756 22.5471 68.3002C23.9375 69.2248 25.4963 69.8664 27.1347 70.1885C28.7731 70.5106 30.4589 70.5069 32.0958 70.1775C33.7327 69.8481 35.2887 69.1995 36.675 68.2688L100.312 25.575C100.578 25.3903 100.878 25.2598 101.194 25.191C101.511 25.1221 101.838 25.1163 102.156 25.1737C102.475 25.2312 102.779 25.3508 103.051 25.5259C103.324 25.7009 103.559 25.9278 103.744 26.1937C103.928 26.4597 104.059 26.7594 104.128 27.0757C104.197 27.3921 104.202 27.7189 104.145 28.0375C104.088 28.3561 103.968 28.6603 103.793 28.9327C103.618 29.2051 103.391 29.4403 103.125 29.625L39.375 72.3187C36.4926 74.2575 33.0987 75.2952 29.625 75.3ZM150 95.2313C150 94.5848 149.743 93.9648 149.286 93.5077C148.829 93.0506 148.209 92.7938 147.562 92.7938H70.9313C67.5597 92.7938 64.3262 91.4544 61.9422 89.0704C59.5581 86.6863 58.2188 83.4528 58.2188 80.0813C58.2188 76.7097 59.5581 73.4762 61.9422 71.0922C64.3262 68.7081 67.5597 67.3688 70.9313 67.3688H147.562C148.209 67.3688 148.829 67.1119 149.286 66.6548C149.743 66.1977 150 65.5777 150 64.9313C150 64.2848 149.743 63.6648 149.286 63.2077C148.829 62.7506 148.209 62.4938 147.562 62.4938H70.9313C66.2668 62.4938 61.7933 64.3467 58.495 67.645C55.1967 70.9433 53.3438 75.4168 53.3438 80.0813C53.3438 84.7458 55.1967 89.2192 58.495 92.5175C61.7933 95.8158 66.2668 97.6688 70.9313 97.6688H147.562C147.883 97.6688 148.2 97.6057 148.495 97.4832C148.791 97.3607 149.06 97.1812 149.286 96.9548C149.512 96.7285 149.692 96.4598 149.814 96.164C149.937 95.8683 150 95.5514 150 95.2313ZM150 80.0813C150 79.4348 149.743 78.8148 149.286 78.3577C148.829 77.9006 148.209 77.6438 147.562 77.6438H70.7812C70.1348 77.6438 69.5148 77.9006 69.0577 78.3577C68.6006 78.8148 68.3438 79.4348 68.3438 80.0813C68.3438 80.7277 68.6006 81.3477 69.0577 81.8048C69.5148 82.2619 70.1348 82.5188 70.7812 82.5188H147.656C148.286 82.4945 148.882 82.227 149.32 81.7725C149.757 81.318 150 80.7118 150 80.0813ZM4.875 28.9125H0V97.6688H4.875V28.9125ZM31.425 118.219C31.4265 117.976 31.3773 117.735 31.2804 117.512C31.1836 117.29 31.0412 117.09 30.8625 116.925C30.633 116.723 30.3655 116.57 30.0757 116.473C29.7858 116.376 29.4796 116.339 29.175 116.363C28.5392 116.364 27.9257 116.597 27.45 117.019C26.904 117.521 26.519 118.173 26.3438 118.894H31.3312C31.4011 118.676 31.4328 118.447 31.425 118.219ZM0 138.075H130.519V168.075H120.112L125.737 154.05C125.919 153.526 126.228 153.056 126.638 152.681C126.987 152.4 127.426 152.254 127.875 152.269V151.669H123.75V152.269C124.537 152.269 124.913 152.513 124.913 152.963C124.88 153.34 124.779 153.709 124.612 154.05L122.737 158.85L120.544 154.05C120.347 153.698 120.226 153.308 120.188 152.906C120.188 152.475 120.619 152.269 121.5 152.269V151.669H116.081V152.269C116.496 152.249 116.903 152.382 117.225 152.644C117.602 153.051 117.895 153.529 118.088 154.05L121.537 161.55L120.037 165.3C119.888 165.763 119.667 166.2 119.381 166.594C119.111 166.94 118.824 167.272 118.519 167.588C118.335 167.747 118.166 167.923 118.012 168.113H0V138.075ZM99.375 161.663H106.256V161.025C105.833 161.042 105.41 160.997 105 160.894C104.727 160.811 104.489 160.64 104.325 160.406C104.125 160.096 104.003 159.742 103.969 159.375C103.898 158.753 103.867 158.126 103.875 157.5V155.85C103.826 154.927 104.12 154.019 104.7 153.3C104.866 153.041 105.086 152.822 105.345 152.657C105.604 152.492 105.896 152.385 106.2 152.344C106.333 152.328 106.468 152.342 106.594 152.387C106.72 152.432 106.834 152.505 106.926 152.602C107.019 152.698 107.088 152.815 107.128 152.943C107.168 153.07 107.178 153.205 107.156 153.338C107.155 153.478 107.182 153.617 107.237 153.746C107.292 153.875 107.373 153.991 107.475 154.088C107.566 154.191 107.679 154.273 107.805 154.329C107.931 154.384 108.068 154.41 108.206 154.406C108.382 154.42 108.558 154.389 108.718 154.317C108.879 154.245 109.019 154.134 109.125 153.994C109.318 153.699 109.416 153.352 109.406 153C109.394 152.759 109.333 152.524 109.227 152.308C109.121 152.092 108.971 151.9 108.787 151.744C108.307 151.323 107.681 151.108 107.044 151.144C106.366 151.144 105.706 151.368 105.169 151.781C104.596 152.163 104.131 152.686 103.819 153.3C103.819 152.981 103.706 152.588 103.594 152.081C103.541 151.758 103.447 151.443 103.312 151.144L99.375 151.875V152.513C99.7916 152.497 100.208 152.541 100.613 152.644C100.894 152.72 101.143 152.884 101.325 153.113C101.518 153.425 101.634 153.778 101.663 154.144C101.732 154.766 101.763 155.392 101.756 156.019V157.5C101.768 158.127 101.731 158.754 101.644 159.375C101.597 159.737 101.483 160.087 101.306 160.406C101.14 160.645 100.894 160.818 100.613 160.894C100.208 160.996 99.7916 161.041 99.375 161.025V161.663ZM80.625 159.525C80.6005 159.876 80.6571 160.227 80.7904 160.552C80.9237 160.877 81.1302 161.168 81.3938 161.4C81.9109 161.856 82.5793 162.104 83.2688 162.094C83.9191 162.101 84.5617 161.953 85.1438 161.663C85.8283 161.294 86.4592 160.833 87.0188 160.294C87.0353 160.542 87.1011 160.784 87.2122 161.007C87.3234 161.229 87.4777 161.427 87.6661 161.59C87.8546 161.752 88.0734 161.875 88.3099 161.952C88.5464 162.029 88.7959 162.058 89.0438 162.038C89.4227 162.032 89.796 161.945 90.1387 161.783C90.4815 161.622 90.7858 161.389 91.0312 161.1L90.6188 160.538C90.4939 160.654 90.3554 160.755 90.2063 160.838C90.0786 160.925 89.9296 160.977 89.775 160.988C89.3063 160.988 89.0812 160.594 89.0812 159.806V155.25C89.1909 154.688 89.1604 154.108 88.9925 153.56C88.8246 153.013 88.5245 152.515 88.1186 152.111C87.7128 151.707 87.2137 151.409 86.6654 151.244C86.1171 151.078 85.5366 151.05 84.975 151.163C84.1034 151.189 83.2524 151.434 82.5 151.875C82.168 152.028 81.8852 152.27 81.6832 152.575C81.4811 152.88 81.368 153.235 81.3562 153.6C81.3521 153.739 81.3766 153.877 81.4282 154.006C81.4798 154.135 81.5574 154.252 81.6562 154.35C81.7526 154.451 81.8693 154.53 81.9987 154.581C82.1281 154.633 82.2671 154.657 82.4062 154.65C82.5394 154.652 82.6715 154.627 82.7942 154.575C82.9169 154.524 83.0274 154.447 83.1188 154.35C83.2176 154.252 83.2952 154.135 83.3468 154.006C83.3984 153.877 83.4229 153.739 83.4188 153.6C83.4166 153.392 83.467 153.186 83.5654 153.003C83.6637 152.819 83.8067 152.664 83.9813 152.55C84.3085 152.296 84.7107 152.158 85.125 152.156C85.4341 152.116 85.7485 152.158 86.0354 152.28C86.3223 152.402 86.5712 152.599 86.7562 152.85C87.0685 153.629 87.1968 154.47 87.1313 155.306C86.2835 155.452 85.4446 155.647 84.6188 155.888C83.9326 156.109 83.2675 156.392 82.6312 156.731C82.0856 157.024 81.6117 157.434 81.2438 157.931C80.9117 158.397 80.7287 158.953 80.7188 159.525H80.625ZM62.3813 161.663H69.375V161.025C68.9583 161.042 68.5414 160.998 68.1375 160.894C67.8561 160.818 67.6104 160.645 67.4438 160.406C67.2508 160.094 67.1351 159.741 67.1063 159.375C67.0359 158.753 67.0046 158.126 67.0125 157.5V155.85C66.9587 154.93 67.2457 154.022 67.8187 153.3C67.9881 153.045 68.2091 152.828 68.4675 152.663C68.7258 152.498 69.0158 152.39 69.3188 152.344C69.4515 152.328 69.5863 152.342 69.7123 152.387C69.8384 152.432 69.9523 152.505 70.045 152.602C70.1378 152.698 70.2069 152.815 70.2468 152.943C70.2867 153.07 70.2963 153.205 70.275 153.338C70.28 153.619 70.3943 153.888 70.5938 154.088C70.6847 154.191 70.7974 154.273 70.9238 154.329C71.0502 154.384 71.1872 154.41 71.325 154.406C71.5008 154.424 71.6781 154.395 71.8393 154.322C72.0005 154.25 72.1399 154.137 72.2437 153.994C72.4368 153.699 72.5349 153.352 72.525 153C72.4936 152.52 72.2788 152.07 71.925 151.744C71.438 151.322 70.8057 151.107 70.1625 151.144C69.4841 151.142 68.8244 151.367 68.2875 151.781C67.7146 152.163 67.2497 152.686 66.9375 153.3C66.9375 152.981 66.825 152.588 66.7125 152.081C66.6503 151.76 66.5561 151.446 66.4313 151.144L62.4375 151.894V152.531C62.848 152.515 63.2586 152.56 63.6562 152.663C63.9399 152.734 64.1911 152.899 64.3688 153.131C64.5605 153.445 64.682 153.797 64.725 154.163C64.7616 154.787 64.7616 155.413 64.725 156.038V157.5C64.763 158.124 64.763 158.751 64.725 159.375C64.682 159.74 64.5605 160.092 64.3688 160.406C64.2099 160.653 63.961 160.828 63.675 160.894C63.2773 160.997 62.8667 161.041 62.4563 161.025L62.3813 161.663ZM39.8813 144.525C40.2926 144.515 40.7032 144.566 41.1 144.675C41.3844 144.744 41.6321 144.918 41.7938 145.163C41.9867 145.475 42.1024 145.828 42.1312 146.194C42.2181 146.815 42.2557 147.442 42.2438 148.069V162.188H42.8813L44.1937 160.181C44.6287 160.792 45.2001 161.293 45.8625 161.644C46.5275 162.012 47.2774 162.199 48.0375 162.188C48.7219 162.194 49.3997 162.053 50.025 161.775C50.6585 161.495 51.2268 161.087 51.6937 160.575C52.1755 160.056 52.5569 159.452 52.8187 158.794C53.0869 158.119 53.2268 157.401 53.2312 156.675C53.2286 155.949 53.0886 155.23 52.8187 154.556C52.5657 153.899 52.1831 153.3 51.6937 152.794C51.2268 152.282 50.6585 151.874 50.025 151.594C49.3968 151.324 48.7209 151.184 48.0375 151.181C47.3331 151.171 46.6359 151.325 46.0013 151.631C45.3667 151.937 44.812 152.386 44.3812 152.944V143.156L39.8813 143.906V144.525ZM27.8438 146.869C27.8436 147.22 27.9807 147.558 28.2258 147.81C28.4709 148.062 28.8047 148.209 29.1562 148.219C29.3313 148.222 29.5052 148.189 29.6666 148.121C29.8281 148.053 29.9736 147.952 30.0937 147.825C30.2185 147.703 30.3176 147.557 30.3852 147.396C30.4528 147.235 30.4877 147.062 30.4877 146.888C30.4877 146.713 30.4528 146.54 30.3852 146.379C30.3176 146.218 30.2185 146.072 30.0937 145.95C29.9079 145.773 29.6747 145.653 29.4223 145.605C29.1698 145.557 28.9089 145.583 28.671 145.68C28.4331 145.777 28.2284 145.941 28.0816 146.152C27.9349 146.363 27.8522 146.612 27.8438 146.869ZM25.7437 161.663H32.625V161.025C32.2021 161.042 31.7791 160.997 31.3687 160.894C31.0899 160.812 30.8459 160.641 30.675 160.406C30.4952 160.091 30.3925 159.738 30.375 159.375C30.3046 158.753 30.2733 158.126 30.2812 157.5V151.163L25.7812 151.913V152.55C26.1979 152.535 26.6146 152.579 27.0187 152.681C27.295 152.758 27.5386 152.922 27.7125 153.15C27.9043 153.464 28.0258 153.816 28.0688 154.181C28.1053 154.806 28.1053 155.432 28.0688 156.056V157.5C28.1164 158.124 28.1164 158.751 28.0688 159.375C28.0258 159.74 27.9043 160.092 27.7125 160.406C27.5567 160.648 27.3158 160.822 27.0375 160.894C26.6334 160.996 26.2167 161.041 25.8 161.025L25.7437 161.663ZM1.875 161.663H17.625L17.8687 157.669H17.2312L17.0812 158.269C16.9821 158.976 16.6603 159.632 16.1625 160.144C15.3843 160.55 14.5045 160.719 13.6313 160.631H10.0312C9.52186 160.639 9.01298 160.595 8.5125 160.5C8.19159 160.432 7.9018 160.261 7.6875 160.013C7.45921 159.721 7.32221 159.369 7.29375 159C7.20693 158.379 7.16931 157.752 7.18125 157.125V147.75C7.16931 147.123 7.20693 146.496 7.29375 145.875C7.3258 145.513 7.46261 145.167 7.6875 144.881C7.89393 144.62 8.18626 144.441 8.5125 144.375C9.01695 144.315 9.5268 144.315 10.0312 144.375V143.738H1.875V144.375C2.39088 144.358 2.90694 144.402 3.4125 144.506C3.73444 144.572 4.02505 144.743 4.2375 144.994C4.45152 145.286 4.58709 145.628 4.63125 145.988C4.66921 146.612 4.66921 147.238 4.63125 147.863V157.5C4.67035 158.124 4.67035 158.751 4.63125 159.375C4.58615 159.746 4.45097 160.1 4.2375 160.406C4.02505 160.657 3.73444 160.829 3.4125 160.894C2.90694 160.998 2.39088 161.042 1.875 161.025V161.663ZM47.3813 160.969C47.873 161 48.3645 160.906 48.8103 160.696C49.2561 160.486 49.6417 160.167 49.9312 159.769C50.5067 158.833 50.8114 157.755 50.8114 156.656C50.8114 155.557 50.5067 154.48 49.9312 153.544C49.6372 153.151 49.2503 152.838 48.8052 152.632C48.3602 152.425 47.8709 152.333 47.3813 152.363C46.6999 152.342 46.0341 152.569 45.5063 153C44.9647 153.462 44.5514 154.056 44.3062 154.725V158.475C44.5416 159.159 44.956 159.768 45.5063 160.238C46.035 160.716 46.7246 160.977 47.4375 160.969H47.3813ZM84.375 160.706C84.7749 160.7 85.1673 160.597 85.5188 160.406C86.0887 160.091 86.6177 159.707 87.0938 159.263V156.206C84.3375 156.844 82.9688 157.838 82.9688 159.169C82.9566 159.37 82.9852 159.572 83.0529 159.762C83.1205 159.952 83.2258 160.127 83.3625 160.275C83.4929 160.412 83.65 160.521 83.8242 160.595C83.9983 160.669 84.1857 160.707 84.375 160.706ZM113.344 123.206C113.33 123.621 113.478 124.024 113.756 124.331C113.888 124.465 114.046 124.571 114.22 124.641C114.394 124.712 114.581 124.747 114.769 124.744C115.167 124.726 115.557 124.624 115.912 124.444C116.482 124.129 117.011 123.744 117.488 123.3V120.206C114.731 120.844 113.344 121.875 113.344 123.169V123.206ZM150 103.481V133.481H0V103.481H150ZM74.775 110.869C74.7678 111.047 74.7992 111.225 74.8672 111.39C74.9352 111.555 75.038 111.703 75.1687 111.825C75.2854 111.952 75.4275 112.053 75.5859 112.12C75.7443 112.188 75.9152 112.222 76.0875 112.219C76.2623 112.22 76.4354 112.186 76.5966 112.118C76.7577 112.05 76.9034 111.951 77.025 111.825C77.1497 111.703 77.2488 111.557 77.3165 111.396C77.3841 111.235 77.4189 111.062 77.4189 110.888C77.4189 110.713 77.3841 110.54 77.3165 110.379C77.2488 110.218 77.1497 110.072 77.025 109.95C76.9034 109.824 76.7577 109.725 76.5966 109.657C76.4354 109.589 76.2623 109.555 76.0875 109.556C75.9152 109.553 75.7443 109.587 75.5859 109.655C75.4275 109.722 75.2854 109.823 75.1687 109.95C75.0437 110.068 74.9443 110.21 74.8766 110.369C74.8088 110.527 74.7743 110.697 74.775 110.869ZM14.3813 120.769C14.3825 119.864 14.1221 118.979 13.6313 118.219C13.0263 117.363 12.2044 116.683 11.25 116.25L8.38125 114.75C7.36513 114.242 6.41443 113.612 5.55 112.875C5.30055 112.631 5.10238 112.339 4.96709 112.017C4.8318 111.695 4.76212 111.349 4.76212 111C4.76212 110.651 4.8318 110.305 4.96709 109.983C5.10238 109.661 5.30055 109.369 5.55 109.125C6.12163 108.603 6.87613 108.326 7.65 108.356C8.38388 108.312 9.11742 108.448 9.7875 108.75C10.3364 109.031 10.8019 109.451 11.1375 109.969C11.4794 110.475 11.7388 111.032 11.9062 111.619C12.0739 112.233 12.193 112.86 12.2625 113.494H12.8812V107.006H12.2812C12.1608 107.549 11.856 108.032 11.4188 108.375C10.9171 108.004 10.3686 107.702 9.7875 107.475C9.13859 107.242 8.45155 107.134 7.7625 107.156C6.44649 107.109 5.1632 107.573 4.18125 108.45C3.73095 108.845 3.37192 109.332 3.12908 109.879C2.88624 110.427 2.76542 111.02 2.775 111.619C2.76655 112.669 3.10977 113.692 3.75 114.525C4.37269 115.383 5.18836 116.083 6.13125 116.569L8.98125 118.125C9.9085 118.584 10.7668 119.171 11.5312 119.869C11.8002 120.104 12.0187 120.392 12.1734 120.714C12.3281 121.036 12.4158 121.387 12.4313 121.744C12.4413 122.195 12.3506 122.643 12.1657 123.055C11.9808 123.467 11.7064 123.832 11.3625 124.125C10.6147 124.755 9.65833 125.083 8.68125 125.044C7.60102 125.075 6.53637 124.781 5.625 124.2C4.91272 123.777 4.32929 123.168 3.9375 122.438C3.62655 121.887 3.39907 121.293 3.2625 120.675C3.19848 120.309 3.15467 119.94 3.13125 119.569H2.53125V126.169H3.13125C3.24528 125.609 3.55836 125.109 4.0125 124.763C4.38607 124.868 4.74509 125.019 5.08125 125.213C5.65613 125.475 6.24445 125.706 6.84375 125.906C7.45165 126.089 8.084 126.178 8.71875 126.169C9.47414 126.174 10.2241 126.041 10.9312 125.775C11.6265 125.55 12.2657 125.179 12.8062 124.688C13.3369 124.215 13.759 123.633 14.0437 122.981C14.3106 122.276 14.4256 121.522 14.3813 120.769ZM33.9188 124.2L33.375 123.525C32.9112 123.954 32.3704 124.291 31.7813 124.519C31.2429 124.758 30.6637 124.891 30.075 124.913C29.5231 124.951 28.9696 124.866 28.4542 124.665C27.9387 124.464 27.4742 124.152 27.0938 123.75C26.4134 122.924 26.0657 121.875 26.1188 120.806C26.149 120.535 26.1928 120.266 26.25 120H33.4688C33.575 119.667 33.6257 119.318 33.6188 118.969C33.622 118.466 33.5126 117.97 33.2984 117.516C33.0842 117.061 32.7708 116.661 32.3813 116.344C31.5609 115.617 30.4955 115.229 29.4 115.256C28.6976 115.252 28.0018 115.392 27.3563 115.669C26.664 115.927 26.0276 116.315 25.4813 116.813C24.9524 117.313 24.5257 117.912 24.225 118.575C23.907 119.255 23.7467 119.999 23.7563 120.75C23.7422 122.206 24.2934 123.611 25.2937 124.669C25.7974 125.184 26.4045 125.587 27.075 125.85C27.784 126.134 28.5425 126.274 29.3062 126.263C30.1976 126.231 31.0726 126.014 31.875 125.625C32.6443 125.291 33.3392 124.806 33.9188 124.2ZM64.3313 125.025C63.9146 125.041 63.4979 124.996 63.0938 124.894C62.8155 124.822 62.5745 124.648 62.4188 124.406C62.227 124.092 62.1055 123.74 62.0625 123.375C61.9933 122.753 61.962 122.126 61.9688 121.5V119.625C62.0309 118.478 61.7573 117.338 61.1813 116.344C60.8768 115.934 60.4717 115.61 60.0052 115.403C59.5387 115.196 59.0267 115.113 58.5187 115.163C57.6626 115.175 56.826 115.421 56.1 115.875C55.3707 116.245 54.7308 116.77 54.225 117.413C54.0527 116.717 53.6358 116.107 53.0504 115.694C52.4651 115.28 51.7505 115.092 51.0375 115.163C50.2593 115.154 49.4959 115.375 48.8438 115.8C48.195 116.209 47.6184 116.722 47.1375 117.319C47.1375 117 47.025 116.606 46.9125 116.1C46.8534 115.778 46.7591 115.464 46.6313 115.163L42.6375 115.913V116.55C43.0541 116.534 43.4709 116.579 43.875 116.681C44.1512 116.758 44.3949 116.922 44.5688 117.15C44.7796 117.441 44.9266 117.773 45 118.125C45.0366 118.749 45.0366 119.376 45 120V121.5C45.0165 122.126 44.9851 122.753 44.9062 123.375C44.8633 123.74 44.7418 124.092 44.55 124.406C44.3942 124.648 44.1533 124.822 43.875 124.894C43.4709 124.996 43.0541 125.041 42.6375 125.025V125.625H48.9937V124.988C48.6587 125 48.3238 124.962 48 124.875C47.7648 124.795 47.5697 124.627 47.4562 124.406C47.2971 124.092 47.2075 123.746 47.1937 123.394C47.1937 122.944 47.1937 122.319 47.1937 121.519V119.644C47.1948 119.217 47.3045 118.798 47.5125 118.425C47.7179 118.063 47.9917 117.745 48.3188 117.488C48.6337 117.237 48.9804 117.029 49.35 116.869C49.6435 116.73 49.9628 116.653 50.2875 116.644C50.6121 116.629 50.9348 116.7 51.224 116.848C51.5133 116.995 51.7591 117.216 51.9375 117.488C52.3198 118.188 52.5136 118.977 52.5 119.775V121.519C52.5 122.363 52.5 123 52.5 123.394C52.4862 123.746 52.3967 124.092 52.2375 124.406C52.1188 124.619 51.9248 124.779 51.6937 124.856C51.3571 124.943 51.0099 124.981 50.6625 124.969V125.625H56.55V124.988C56.2026 125.002 55.8549 124.964 55.5188 124.875C55.2835 124.795 55.0885 124.627 54.975 124.406C54.8179 124.097 54.7284 123.759 54.7125 123.413C54.7125 122.963 54.7125 122.325 54.7125 121.538V119.663C54.7135 119.236 54.8232 118.816 55.0312 118.444C55.2481 118.079 55.5273 117.755 55.8563 117.488C56.1736 117.235 56.5277 117.033 56.9062 116.888C57.1953 116.755 57.5072 116.678 57.825 116.663C58.1512 116.636 58.4784 116.701 58.7698 116.85C59.0613 116.999 59.3054 117.226 59.475 117.506C59.8352 118.24 60.0029 119.053 59.9625 119.869V121.613C59.9625 122.456 59.9625 123.094 59.9625 123.488C59.9439 123.843 59.8613 124.192 59.7188 124.519C59.665 124.628 59.5887 124.724 59.495 124.802C59.4013 124.879 59.2922 124.936 59.175 124.969C58.8436 125.048 58.5027 125.079 58.1625 125.063V125.625H64.5188L64.3313 125.025ZM79.5375 125.025C79.1208 125.042 78.7039 124.998 78.3 124.894C78.0186 124.818 77.7729 124.645 77.6062 124.406C77.4133 124.094 77.2976 123.741 77.2687 123.375C77.1984 122.753 77.1671 122.126 77.175 121.5V115.163L72.675 115.913V116.55C73.0855 116.534 73.4961 116.578 73.8938 116.681C74.1751 116.758 74.4247 116.922 74.6063 117.15C74.8108 117.44 74.9456 117.774 75 118.125C75.0481 118.749 75.0481 119.376 75 120V121.5C75.0068 122.126 74.9755 122.753 74.9062 123.375C74.8633 123.74 74.7418 124.092 74.55 124.406C74.387 124.649 74.1399 124.823 73.8562 124.894C73.4586 124.997 73.048 125.041 72.6375 125.025V125.625H79.5L79.5375 125.025ZM102.787 125.025C102.371 125.043 101.954 124.999 101.55 124.894C101.269 124.818 101.023 124.645 100.856 124.406C100.663 124.094 100.548 123.741 100.519 123.375C100.47 122.751 100.47 122.124 100.519 121.5V119.625C100.531 118.448 100.126 117.306 99.375 116.4C99.0192 115.978 98.5689 115.646 98.0607 115.431C97.5524 115.216 97.0005 115.124 96.45 115.163C95.6058 115.144 94.7736 115.365 94.05 115.8C93.334 116.182 92.6976 116.698 92.175 117.319C92.175 117 92.0625 116.606 91.95 116.1C91.9001 115.776 91.8054 115.46 91.6687 115.163L87.675 115.913V116.55C88.0916 116.534 88.5084 116.579 88.9125 116.681C89.1939 116.758 89.4435 116.922 89.625 117.15C89.8179 117.462 89.9336 117.816 89.9625 118.181C90.0007 118.806 90.0007 119.432 89.9625 120.056V121.556C89.9744 122.183 89.9368 122.81 89.85 123.431C89.8037 123.793 89.6892 124.143 89.5125 124.463C89.3459 124.702 89.1002 124.874 88.8187 124.95C88.4146 125.053 87.9979 125.097 87.5812 125.081V125.625H94.1813V124.988C93.8029 125.001 93.4245 124.963 93.0563 124.875C92.8029 124.803 92.5876 124.635 92.4563 124.406C92.2852 124.087 92.183 123.736 92.1562 123.375C92.1562 122.944 92.1562 122.306 92.1562 121.5V119.625C92.1671 119.214 92.2725 118.81 92.4643 118.446C92.6562 118.082 92.9293 117.767 93.2625 117.525C93.9122 116.956 94.743 116.637 95.6063 116.625C95.9643 116.598 96.3234 116.662 96.6508 116.809C96.9782 116.956 97.2637 117.183 97.4813 117.469C97.9261 118.173 98.1362 119 98.0813 119.831V121.575C98.088 122.201 98.0567 122.827 97.9875 123.45C97.9445 123.815 97.823 124.167 97.6312 124.481C97.4683 124.724 97.2211 124.898 96.9375 124.969C96.5398 125.072 96.1292 125.116 95.7188 125.1V125.625H102.581L102.787 125.025ZM121.537 125.025L121.106 124.463C120.992 124.583 120.859 124.684 120.712 124.763C120.585 124.85 120.436 124.902 120.281 124.913C119.812 124.913 119.587 124.519 119.587 123.731V119.25C119.697 118.688 119.667 118.108 119.499 117.56C119.331 117.013 119.031 116.515 118.625 116.111C118.219 115.707 117.72 115.409 117.172 115.244C116.623 115.078 116.043 115.05 115.481 115.163C114.549 115.143 113.629 115.376 112.819 115.838C112.486 115.991 112.201 116.233 111.996 116.538C111.792 116.842 111.674 117.196 111.656 117.563C111.656 117.842 111.764 118.11 111.956 118.313C112.056 118.414 112.176 118.493 112.309 118.544C112.441 118.596 112.583 118.619 112.725 118.613C112.858 118.614 112.99 118.588 113.112 118.536C113.235 118.485 113.345 118.408 113.438 118.313C113.536 118.215 113.614 118.098 113.666 117.969C113.717 117.84 113.742 117.701 113.738 117.563C113.735 117.356 113.783 117.153 113.878 116.97C113.973 116.786 114.111 116.629 114.281 116.513C114.619 116.264 115.025 116.127 115.444 116.119C115.75 116.075 116.063 116.117 116.347 116.239C116.632 116.362 116.877 116.56 117.056 116.813C117.377 117.589 117.512 118.431 117.45 119.269C116.602 119.413 115.763 119.607 114.938 119.85C114.25 120.068 113.585 120.351 112.95 120.694C112.401 120.981 111.926 121.392 111.562 121.894C111.228 122.371 111.057 122.943 111.075 123.525C111.05 123.876 111.107 124.227 111.24 124.552C111.374 124.877 111.58 125.168 111.844 125.4C112.36 125.858 113.029 126.105 113.719 126.094C114.37 126.106 115.013 125.958 115.594 125.663C116.281 125.298 116.912 124.837 117.469 124.294C117.485 124.544 117.552 124.788 117.664 125.011C117.776 125.235 117.932 125.434 118.123 125.597C118.313 125.759 118.534 125.882 118.773 125.958C119.012 126.033 119.263 126.061 119.513 126.038C119.907 126.038 120.297 125.951 120.653 125.782C121.01 125.613 121.325 125.368 121.575 125.063L121.537 125.025ZM139.781 116.981C139.769 116.741 139.708 116.505 139.602 116.289C139.496 116.073 139.346 115.881 139.163 115.725C138.678 115.3 138.044 115.084 137.4 115.125C136.722 115.124 136.062 115.348 135.525 115.763C134.952 116.145 134.487 116.668 134.175 117.281C134.175 116.963 134.062 116.569 133.95 116.063C133.891 115.741 133.797 115.426 133.669 115.125L129.675 115.875V116.513C130.092 116.497 130.508 116.541 130.913 116.644C131.189 116.72 131.432 116.885 131.606 117.113C131.815 117.418 131.938 117.774 131.962 118.144C132.001 118.768 132.001 119.394 131.962 120.019V121.519C131.974 122.146 131.937 122.773 131.85 123.394C131.804 123.756 131.689 124.106 131.512 124.425C131.346 124.664 131.1 124.837 130.819 124.913C130.415 125.015 129.998 125.059 129.581 125.044V125.625H136.462V124.988C136.04 125.004 135.617 124.96 135.206 124.856C134.927 124.775 134.683 124.604 134.512 124.369C134.32 124.057 134.204 123.703 134.175 123.338C134.136 122.713 134.136 122.087 134.175 121.463V119.813C134.136 118.894 134.422 117.992 134.981 117.263C135.151 117.007 135.372 116.79 135.63 116.626C135.888 116.461 136.178 116.352 136.481 116.306C136.615 116.287 136.752 116.299 136.881 116.343C137.009 116.386 137.126 116.459 137.221 116.556C137.316 116.653 137.387 116.77 137.428 116.9C137.468 117.029 137.478 117.166 137.456 117.3C137.454 117.58 137.562 117.849 137.756 118.05C137.852 118.152 137.969 118.233 138.098 118.288C138.227 118.343 138.366 118.37 138.506 118.369C138.679 118.385 138.853 118.355 139.011 118.283C139.169 118.21 139.305 118.098 139.406 117.956C139.642 117.697 139.787 117.368 139.819 117.019L139.781 116.981Z" fill="white"/>
</svg>
